<svg width="36" height="38" viewBox="0 0 36 38" fill="none" xmlns="http://www.w3.org/2000/svg">
<g id="Group">
<path id="Vector" d="M7.29395 18.2793H19.6607C20.1013 18.2793 20.4586 17.922 20.4586 17.4814C20.4586 17.0409 20.1013 16.6836 19.6607 16.6836H7.29395C6.85315 16.6836 6.49609 17.0409 6.49609 17.4814C6.49609 17.922 6.85315 18.2793 7.29395 18.2793ZM14.6978 21.8697H7.29395C6.85315 21.8697 6.49609 22.227 6.49609 22.6675C6.49609 23.1081 6.85315 23.4654 7.29395 23.4654H14.6978C15.1383 23.4654 15.4956 23.1081 15.4956 22.6675C15.4956 22.227 15.1383 21.8697 14.6978 21.8697Z" fill="black"/>
<path id="Vector_2" d="M28.5476 20.0977V6.31104C28.5471 4.10793 26.7612 2.32253 24.5583 2.32176H21.2871V0.797855C21.2871 0.357056 20.9301 0 20.4893 0C20.0487 0 19.6914 0.357056 19.6914 0.797855V2.32176H8.84057V0.797855C8.84057 0.357056 8.48351 0 8.04271 0C7.60217 0 7.24486 0.357056 7.24486 0.797855V2.32176H3.97365C1.77081 2.32253 -0.0146037 4.10793 -0.015625 6.31104V27.9249C-0.0146676 30.1278 1.77081 31.9132 3.97365 31.9142H18.7421C20.2772 35.8462 24.3942 38.1286 28.5423 37.3476C32.6904 36.567 35.6958 32.944 35.6966 28.7228C35.7042 24.4383 32.6166 20.8639 28.5475 20.0977H28.5476ZM3.98182 3.91747H7.25303V5.44137C7.25303 5.88192 7.61009 6.23923 8.05089 6.23923C8.49143 6.23923 8.84874 5.88192 8.84874 5.44137V3.91747H19.6996V5.44137C19.6996 5.88192 20.0566 6.23923 20.4974 6.23923C20.938 6.23923 21.2953 5.88192 21.2953 5.44137V3.91747H24.5665C25.8867 3.92124 26.956 4.99062 26.9601 6.31104V8.24185H1.58826V6.31104C1.58921 4.98934 2.66038 3.91849 3.98182 3.91747ZM3.98182 30.3185C2.66134 30.3147 1.59196 29.2452 1.58826 27.9249V9.82958H26.9518V19.9464H26.9279C25.6407 19.9483 24.3697 20.2329 23.2046 20.7801C22.0395 21.3273 21.0089 22.1237 20.1855 23.1131C19.362 24.1024 18.7659 25.2606 18.4392 26.5056C18.1126 27.7507 18.0634 29.0523 18.2952 30.3185H3.98182ZM26.9279 35.9035C22.9623 35.9035 19.7472 32.6886 19.7472 28.7228C19.7472 24.7569 22.9623 21.5421 26.9279 21.5421C30.8937 21.5421 34.1086 24.7569 34.1086 28.7228C34.1026 32.6862 30.8913 35.8975 26.9279 35.9035Z" fill="black"/>
<path id="Vector_3" d="M30.6228 25.8593L25.8837 30.3831L23.434 27.9257C23.1237 27.6151 22.62 27.6151 22.3094 27.9257C21.9984 28.2364 21.9984 28.7401 22.3094 29.0507L25.3169 32.0586C25.3911 32.1332 25.4795 32.1922 25.5768 32.2319C25.6742 32.2716 25.7786 32.2914 25.8837 32.29C25.9857 32.2909 26.0868 32.2716 26.1812 32.2332C26.2757 32.1948 26.3616 32.1381 26.4339 32.0664L31.7317 27C31.8073 26.9278 31.8679 26.8414 31.91 26.7458C31.9522 26.6502 31.9751 26.5472 31.9774 26.4428C31.9796 26.3382 31.9611 26.2343 31.9231 26.1369C31.885 26.0396 31.8281 25.9506 31.7557 25.8753C31.4451 25.5636 30.9421 25.5564 30.6228 25.8593Z" fill="black"/>
</g>
</svg>
