<svg width="91" height="22" viewBox="0 0 91 22" fill="none" xmlns="http://www.w3.org/2000/svg">
<path d="M0 8.32885H8.34445H13.4126V3.30078L0 8.32885Z" fill="#FF9D28"/>
<path d="M13.4121 3.30443V21.0498L19.7507 0.9375L13.4121 3.30443Z" fill="#68C5ED"/>
<path d="M13.4119 8.33203H8.34375L13.4119 21.0493V8.33203Z" fill="#044D80"/>
<path d="M0 8.33203L9.64158 11.5949L8.34445 8.33203H0Z" fill="#E54747"/>
<path d="M30.7171 16.3832C30.6502 16.4501 30.5165 16.5437 30.3561 16.664C30.1822 16.771 29.9549 16.878 29.6874 16.9983C29.4066 17.1053 29.0723 17.1989 28.6711 17.2792C28.2699 17.3594 27.8153 17.3995 27.3071 17.3995C26.3176 17.3995 25.4617 17.239 24.7396 16.9181C24.0175 16.5972 23.4157 16.1559 22.9477 15.5808C22.4796 15.0058 22.132 14.3372 21.9046 13.5616C21.6907 12.786 21.5703 11.9302 21.5703 10.9941C21.5703 10.058 21.6907 9.20217 21.9314 8.41319C22.1721 7.62421 22.5331 6.94221 23.0012 6.36719C23.4826 5.79217 24.071 5.33751 24.7931 5.01657C25.5152 4.69563 26.3577 4.53516 27.3205 4.53516C27.8019 4.53516 28.2298 4.57527 28.6176 4.66888C29.0054 4.74912 29.3397 4.8561 29.6339 4.97645C29.9281 5.0968 30.1555 5.21716 30.3561 5.33751C30.5433 5.47123 30.6904 5.57821 30.784 5.65845C30.891 5.75206 30.9846 5.87241 31.0648 6.00613C31.145 6.13986 31.1852 6.28696 31.1852 6.44743C31.1852 6.68813 31.0915 6.94221 30.9043 7.18291C30.7171 7.42362 30.5165 7.65095 30.3026 7.86491C30.1555 7.71782 29.995 7.57072 29.8078 7.41025C29.6206 7.26315 29.42 7.11605 29.1926 7.00907C28.9653 6.88872 28.7112 6.79511 28.417 6.71488C28.1228 6.63464 27.8019 6.59452 27.4542 6.59452C26.8257 6.59452 26.3042 6.71488 25.8896 6.96895C25.4617 7.22303 25.1274 7.54397 24.8733 7.95852C24.6192 8.35969 24.432 8.82773 24.325 9.34926C24.2181 9.87079 24.1646 10.4057 24.1646 10.9406C24.1646 11.5156 24.2181 12.0639 24.325 12.5988C24.432 13.1203 24.6192 13.5883 24.9001 13.9895C25.1675 14.3907 25.5152 14.725 25.9565 14.9657C26.3844 15.2064 26.9327 15.3268 27.5879 15.3268C27.9356 15.3268 28.2432 15.2867 28.5374 15.193C28.8316 15.1128 29.0857 15.0058 29.2996 14.8855C29.5136 14.7651 29.7142 14.6314 29.8746 14.4977C30.0351 14.364 30.1822 14.2436 30.2892 14.15C30.3561 14.2302 30.4497 14.3372 30.5433 14.4576C30.6369 14.5779 30.7305 14.7116 30.8241 14.8454C30.9043 14.9791 30.9846 15.1128 31.0381 15.2465C31.1049 15.3803 31.1317 15.5006 31.1317 15.6076C31.1317 15.7681 31.1049 15.9018 31.0381 16.0088C30.9578 16.1158 30.8508 16.2495 30.7171 16.3832ZM40.1848 14.9657C40.1848 15.9419 40.3319 16.6507 40.6128 17.0919C40.3854 17.1722 40.1849 17.239 39.9976 17.2792C39.8104 17.3193 39.6098 17.3327 39.3959 17.3327C38.9546 17.3327 38.6203 17.2524 38.3929 17.0786C38.1656 16.9047 38.0185 16.664 37.965 16.3431C37.6976 16.6239 37.3365 16.8646 36.8952 17.0652C36.4539 17.2658 35.9056 17.3594 35.2638 17.3594C34.9295 17.3594 34.5951 17.3193 34.2608 17.2257C33.9265 17.1321 33.6323 16.985 33.3515 16.771C33.084 16.557 32.8567 16.2762 32.6829 15.9285C32.509 15.5809 32.4288 15.1529 32.4288 14.6448C32.4288 14.0163 32.5759 13.5081 32.8835 13.1203C33.191 12.7325 33.5655 12.4116 34.0201 12.1842C34.4748 11.9569 34.9696 11.7964 35.5045 11.7162C36.0394 11.636 36.5208 11.5691 36.9621 11.5557C37.1092 11.5424 37.2563 11.5424 37.39 11.5424H37.7912V11.208C37.7912 10.74 37.6708 10.3923 37.4167 10.2051C37.1627 10.0045 36.7481 9.91091 36.1865 9.91091C35.6516 9.91091 35.1835 9.99114 34.769 10.165C34.3544 10.3388 33.9533 10.5394 33.5521 10.7534C33.3782 10.5394 33.2445 10.3121 33.1375 10.058C33.0306 9.80393 32.9771 9.61671 32.9771 9.49636C32.9771 9.32251 33.0707 9.16205 33.2579 9.00158C33.4451 8.84111 33.7126 8.69401 34.0469 8.57365C34.3812 8.43993 34.7556 8.34632 35.1969 8.26609C35.6248 8.18585 36.0795 8.14574 36.5609 8.14574C37.2295 8.14574 37.7912 8.2126 38.2458 8.34632C38.7139 8.48005 39.0883 8.69401 39.3691 8.97483C39.6633 9.25565 39.8639 9.61671 39.9843 10.0313C40.1046 10.4592 40.1715 10.954 40.1715 11.5156L40.1848 14.9657ZM37.8179 12.8261H37.5638C37.4836 12.8261 37.39 12.8261 37.3098 12.8395C37.0022 12.8662 36.6946 12.9064 36.4004 12.9465C36.0929 13 35.8254 13.0802 35.5981 13.2005C35.3574 13.3209 35.1702 13.4814 35.0231 13.682C34.876 13.8825 34.7957 14.1366 34.7957 14.4442C34.7957 14.7919 34.8893 15.0861 35.0899 15.3268C35.2905 15.5675 35.6248 15.6878 36.0929 15.6878C36.3202 15.6878 36.5475 15.6611 36.7615 15.5942C36.9754 15.5274 37.1493 15.4471 37.3098 15.3535C37.4702 15.2599 37.5906 15.1529 37.6842 15.0326C37.7778 14.9122 37.8179 14.8052 37.8179 14.7116V12.8261ZM44.785 9.18879C44.9856 8.96146 45.2931 8.72075 45.7077 8.48005C46.1222 8.23934 46.6571 8.11899 47.2857 8.11899C47.7403 8.11899 48.1682 8.19923 48.5828 8.34632C48.9973 8.50679 49.3584 8.7475 49.6793 9.09518C50.0003 9.44287 50.2544 9.89753 50.4416 10.4592C50.6288 11.0208 50.7224 11.7162 50.7224 12.5453C50.7224 13.5081 50.6154 14.2971 50.3881 14.9256C50.1607 15.5541 49.8799 16.0355 49.5322 16.4099C49.1845 16.771 48.7967 17.0251 48.3688 17.1722C47.9409 17.3193 47.513 17.3995 47.0851 17.3995C46.724 17.3995 46.4164 17.3594 46.149 17.2792C45.8815 17.1989 45.6542 17.1053 45.4804 17.0117C45.2931 16.9181 45.1594 16.8111 45.0524 16.7175C44.9588 16.6239 44.892 16.557 44.8652 16.5169V21.0636H42.3512V8.38644C42.4181 8.37307 42.4849 8.3597 42.5785 8.34632C42.6588 8.33295 42.739 8.31958 42.846 8.31958C42.9396 8.31958 43.0599 8.3062 43.1937 8.3062C43.6082 8.3062 43.9559 8.37307 44.2367 8.50679C44.5309 8.64052 44.7181 8.86785 44.785 9.18879ZM48.1147 12.5988C48.1147 12.2244 48.088 11.89 48.0211 11.5691C47.9543 11.2482 47.8607 10.9673 47.7136 10.74C47.5665 10.5127 47.3793 10.3255 47.1386 10.1917C46.8979 10.058 46.6037 9.99114 46.2693 9.99114C45.7612 9.99114 45.4001 10.0848 45.1995 10.2853C44.999 10.4859 44.892 10.6999 44.892 10.9272V14.8454C44.9856 14.939 45.1594 15.0593 45.4135 15.193C45.6676 15.3268 45.9618 15.3936 46.2827 15.3936C46.9112 15.3936 47.3659 15.1529 47.6601 14.6581C47.9676 14.1767 48.1147 13.4947 48.1147 12.5988ZM52.6748 15.7814C52.5945 15.5407 52.5277 15.2733 52.5143 15.0058C52.4876 14.7384 52.4742 14.4576 52.4742 14.1901V5.61833C52.5544 5.60496 52.648 5.59159 52.755 5.57821C52.8352 5.56484 52.9289 5.55147 53.0358 5.55147C53.1294 5.55147 53.2364 5.5381 53.33 5.5381C53.5306 5.5381 53.7178 5.55147 53.9184 5.59159C54.119 5.6317 54.2929 5.69856 54.4533 5.81892C54.6138 5.9259 54.7475 6.08637 54.8411 6.27358C54.9347 6.4608 54.9882 6.71487 54.9882 7.02244V8.33295H57.5825V10.2051H54.9882V14.15C54.9882 15.0058 55.3359 15.4338 56.0446 15.4338C56.2185 15.4338 56.379 15.407 56.5394 15.3535C56.6999 15.3 56.8336 15.2332 56.954 15.1663C57.0743 15.0994 57.1813 15.0326 57.2749 14.9523C57.3685 14.8721 57.4354 14.8186 57.4755 14.7919C57.6627 15.0593 57.7964 15.3 57.9034 15.5006C57.997 15.7012 58.0505 15.8884 58.0505 16.0623C58.0505 16.2227 57.9837 16.3832 57.8499 16.5437C57.7162 16.7041 57.5424 16.8379 57.3017 16.9716C57.061 17.1053 56.7801 17.2123 56.4458 17.2925C56.1115 17.3728 55.7505 17.4129 55.3493 17.4129C54.587 17.4129 53.9853 17.2658 53.5707 16.9716C53.1562 16.6507 52.8486 16.2628 52.6748 15.7814ZM63.9478 15.5407C64.2554 15.5407 64.5228 15.5006 64.7635 15.4338C65.0042 15.3669 65.2048 15.2867 65.392 15.1797C65.5793 15.0861 65.7397 14.9791 65.8734 14.8587C66.0072 14.7384 66.1275 14.6314 66.2479 14.5378C66.395 14.725 66.5554 14.9657 66.7159 15.2465C66.8764 15.5407 66.9566 15.7681 66.9566 15.9553C66.9566 16.2227 66.7962 16.4768 66.4886 16.6908C66.2345 16.8914 65.8601 17.0518 65.392 17.1989C64.924 17.346 64.3624 17.4129 63.7205 17.4129C63.1455 17.4129 62.5704 17.3326 62.0088 17.1856C61.4471 17.0385 60.9524 16.7844 60.5111 16.4099C60.0698 16.0355 59.7221 15.5407 59.4546 14.9256C59.1872 14.2971 59.0535 13.5215 59.0535 12.572C59.0535 11.7964 59.1738 11.1278 59.4145 10.5662C59.6552 10.0045 59.9762 9.53648 60.3773 9.17542C60.7785 8.80099 61.2332 8.53354 61.7413 8.35969C62.2495 8.18585 62.7576 8.10562 63.2925 8.10562C63.9879 8.10562 64.5629 8.2126 65.0444 8.42656C65.5258 8.64052 65.9136 8.93471 66.2211 9.29577C66.5287 9.65683 66.7427 10.0714 66.8764 10.5394C67.0101 11.0075 67.077 11.5022 67.077 12.0238V12.2778C67.077 12.3714 67.077 12.4784 67.0636 12.5854C67.0636 12.6924 67.0502 12.7994 67.0502 12.9063C67.0502 13.0133 67.0369 13.0936 67.0235 13.1604H61.5675C61.621 13.8424 61.8216 14.4041 62.196 14.8454C62.5571 15.3134 63.1455 15.5407 63.9478 15.5407ZM64.7903 11.7964C64.7903 11.208 64.6699 10.7266 64.4426 10.3522C64.2153 9.97777 63.8007 9.80393 63.2123 9.80393C62.7042 9.80393 62.303 9.97777 61.9954 10.3255C61.6878 10.6731 61.5408 11.1679 61.5408 11.7964H64.7903ZM71.4364 9.22891C71.5166 9.12193 71.6103 9.00158 71.7306 8.86785C71.851 8.73413 71.9981 8.61377 72.1853 8.50679C72.3591 8.39981 72.5597 8.3062 72.7737 8.22597C72.9876 8.15911 73.215 8.11899 73.469 8.11899C73.6161 8.11899 73.7766 8.13236 73.9371 8.15911C74.0975 8.18585 74.258 8.22597 74.4051 8.29283C74.5522 8.35969 74.6592 8.4533 74.7528 8.57365C74.833 8.69401 74.8865 8.82773 74.8865 9.00158C74.8865 9.26903 74.8197 9.57659 74.6859 9.92428C74.5522 10.272 74.4185 10.5662 74.2848 10.8202C74.0708 10.6464 73.8702 10.5127 73.6562 10.4191C73.4423 10.3255 73.2016 10.2853 72.9208 10.2853C72.533 10.2853 72.212 10.3923 71.9579 10.6197C71.7039 10.847 71.5701 11.1011 71.5701 11.422V17.3995H69.0561V8.38644C69.123 8.37307 69.1898 8.3597 69.2834 8.34632C69.3637 8.33295 69.4439 8.31958 69.5375 8.31958C69.6311 8.31958 69.7515 8.3062 69.8852 8.3062C70.273 8.3062 70.6207 8.38644 70.9149 8.53354C71.1823 8.68064 71.3562 8.90797 71.4364 9.22891ZM78.5773 9.22891C78.6576 9.12193 78.7512 9.00158 78.8715 8.86785C78.9919 8.73413 79.139 8.61377 79.3262 8.50679C79.5 8.39981 79.7006 8.3062 79.9146 8.22597C80.1285 8.15911 80.3559 8.11899 80.61 8.11899C80.757 8.11899 80.9175 8.13236 81.078 8.15911C81.2385 8.18585 81.3989 8.22597 81.546 8.29283C81.6931 8.35969 81.8001 8.4533 81.8937 8.57365C81.974 8.69401 82.0274 8.82773 82.0274 9.00158C82.0274 9.26903 81.9606 9.57659 81.8269 9.92428C81.6931 10.272 81.5594 10.5662 81.4257 10.8202C81.2117 10.6464 81.0111 10.5127 80.7972 10.4191C80.5832 10.3255 80.3425 10.2853 80.0617 10.2853C79.6739 10.2853 79.3529 10.3923 79.0989 10.6197C78.8448 10.847 78.7111 11.1011 78.7111 11.422V17.3995H76.197V8.38644C76.2639 8.37307 76.3308 8.3597 76.4244 8.34632C76.5046 8.33295 76.5848 8.31958 76.6784 8.31958C76.772 8.31958 76.8924 8.3062 77.0261 8.3062C77.4139 8.3062 77.7616 8.38644 78.0558 8.53354C78.3233 8.68064 78.5105 8.90797 78.5773 9.22891ZM90.5725 14.9657C90.5725 15.9419 90.7196 16.6507 91.0004 17.0919C90.7731 17.1722 90.5725 17.239 90.3853 17.2792C90.1981 17.3193 89.9975 17.3327 89.7835 17.3327C89.3422 17.3327 89.0079 17.2524 88.7806 17.0786C88.5532 16.9047 88.4061 16.664 88.3526 16.3431C88.0852 16.6239 87.7241 16.8646 87.2828 17.0652C86.8415 17.2658 86.2933 17.3594 85.6514 17.3594C85.3171 17.3594 84.9828 17.3193 84.6485 17.2257C84.3141 17.1321 84.0199 16.985 83.7391 16.771C83.4717 16.557 83.2443 16.2762 83.0705 15.9285C82.8967 15.5809 82.8164 15.1529 82.8164 14.6448C82.8164 14.0163 82.9635 13.5081 83.2711 13.1203C83.5787 12.7325 83.9531 12.4116 84.4077 12.1842C84.8624 11.9569 85.3572 11.7964 85.8921 11.7162C86.427 11.636 86.9084 11.5691 87.3497 11.5557C87.4968 11.5424 87.6439 11.5424 87.7776 11.5424H88.1788V11.208C88.1788 10.74 88.0584 10.3923 87.8044 10.2051C87.5503 10.0045 87.1357 9.91091 86.5741 9.91091C86.0392 9.91091 85.5712 9.99114 85.1566 10.165C84.7421 10.3388 84.3409 10.5394 83.9397 10.7534C83.7659 10.5394 83.6321 10.3121 83.5252 10.058C83.4182 9.80393 83.3647 9.61671 83.3647 9.49636C83.3647 9.32251 83.4583 9.16205 83.6455 9.00158C83.8327 8.84111 84.1002 8.69401 84.4345 8.57365C84.7688 8.43993 85.1432 8.34632 85.5845 8.26609C86.0125 8.18585 86.4671 8.14574 86.9485 8.14574C87.6172 8.14574 88.1788 8.2126 88.6335 8.34632C89.1015 8.48005 89.4759 8.69401 89.7568 8.97483C90.0509 9.25565 90.2515 9.61671 90.3719 10.0313C90.4922 10.4592 90.5591 10.954 90.5591 11.5156L90.5725 14.9657ZM88.2055 12.8261H87.9515C87.8712 12.8261 87.7776 12.8261 87.6974 12.8395C87.3898 12.8662 87.0823 12.9064 86.7881 12.9465C86.4805 13 86.213 13.0802 85.9857 13.2005C85.745 13.3209 85.5578 13.4814 85.4107 13.682C85.2636 13.8825 85.1834 14.1366 85.1834 14.4442C85.1834 14.7919 85.277 15.0861 85.4776 15.3268C85.6781 15.5675 86.0125 15.6878 86.4805 15.6878C86.7078 15.6878 86.9352 15.6611 87.1491 15.5942C87.3631 15.5274 87.5369 15.4471 87.6974 15.3535C87.8579 15.2599 87.9782 15.1529 88.0718 15.0326C88.1654 14.9122 88.2055 14.8052 88.2055 14.7116V12.8261Z" fill="#044D80"/>
</svg>
