<svg width="24" height="24" viewBox="0 0 24 24" fill="none" xmlns="http://www.w3.org/2000/svg">
<g clip-path="url(#clip0_252_693)">
<path d="M12.0009 0.960938C5.9094 0.960938 0.960938 5.9094 0.960938 12.0009C0.960938 18.0925 5.9094 23.0409 12.0009 23.0409C18.0925 23.0409 23.0409 18.0925 23.0409 12.0009C23.0409 5.9094 18.0925 0.960938 12.0009 0.960938ZM12.0009 1.92094C17.5737 1.92094 22.0809 6.42822 22.0809 12.0009C22.0809 17.5737 17.5737 22.0809 12.0009 22.0809C6.42822 22.0809 1.92094 17.5737 1.92094 12.0009C1.92094 6.42822 6.42822 1.92094 12.0009 1.92094ZM11.9934 3.35437C11.8663 3.35636 11.7451 3.40871 11.6566 3.49993C11.568 3.59115 11.5192 3.71379 11.5209 3.84094V10.6444C11.2404 10.7436 10.9974 10.9273 10.8255 11.1702C10.6536 11.4131 10.5612 11.7033 10.5609 12.0009C10.5614 12.2155 10.6097 12.4272 10.7025 12.6206L7.82156 15.5016C7.77549 15.5458 7.73872 15.5988 7.71338 15.6574C7.68804 15.716 7.67466 15.7791 7.67401 15.843C7.67336 15.9068 7.68545 15.9702 7.70959 16.0293C7.73373 16.0884 7.76943 16.1421 7.81458 16.1873C7.85974 16.2324 7.91346 16.2681 7.97258 16.2923C8.03171 16.3164 8.09505 16.3285 8.15891 16.3279C8.22277 16.3272 8.28586 16.3138 8.34448 16.2885C8.40311 16.2632 8.45608 16.2264 8.50031 16.1803L11.3812 13.2994C11.5747 13.3921 11.7864 13.4405 12.0009 13.4409C12.3828 13.4409 12.7491 13.2892 13.0192 13.0192C13.2892 12.7491 13.4409 12.3828 13.4409 12.0009C13.4405 11.7035 13.348 11.4135 13.1761 11.1707C13.0042 10.928 12.7614 10.7445 12.4809 10.6453V3.84094C12.4818 3.77672 12.4698 3.71298 12.4456 3.65348C12.4214 3.59399 12.3855 3.53996 12.3401 3.49459C12.2946 3.44922 12.2405 3.41344 12.181 3.38935C12.1214 3.36527 12.0577 3.35337 11.9934 3.35437Z" fill="#8D9CB0"/>
</g>
<defs>
<clipPath id="clip0_252_693">
<rect width="24" height="24" fill="white"/>
</clipPath>
</defs>
</svg>
