<svg width="40" height="40" viewBox="0 0 40 40" fill="none" xmlns="http://www.w3.org/2000/svg">
<path d="M2.18483 19.7194L2.18258 19.7294C2.17739 19.7526 2.1729 19.7759 2.16914 19.7994C2.1462 19.9427 2.15061 20.089 2.18206 20.2306L2.18429 20.2406L2.18443 20.2509C2.31953 29.9679 10.2504 37.8154 19.9994 37.8154C29.8325 37.8154 37.816 29.8318 37.816 19.9987C37.816 17.4644 37.2857 15.0547 36.3311 12.8704C36.2086 12.5911 35.9803 12.3718 35.6962 12.2608C35.4121 12.1498 35.0955 12.1562 34.8161 12.2786C34.5368 12.401 34.3175 12.6294 34.2065 12.9135C34.0955 13.1976 34.1019 13.5142 34.2243 13.7936L34.2243 13.7937C34.7287 14.9489 35.0886 16.1583 35.2983 17.3946L35.3138 17.4859L35.2239 17.5084L31.2068 18.5116L2.18483 19.7194ZM2.18483 19.7194L2.18499 19.7091C2.27512 14.065 4.9954 9.05473 9.17317 5.85161L9.17369 5.85228L9.18292 5.84308C9.25866 5.76759 9.34459 5.70298 9.43827 5.65118L9.43868 5.65192L9.44918 5.64419C12.4035 3.46828 16.0523 2.18203 19.9994 2.18203C20.3043 2.18203 20.5969 2.30319 20.8125 2.51886C21.0282 2.73453 21.1494 3.02703 21.1494 3.33203C21.1494 3.63703 21.0282 3.92954 20.8125 4.1452C20.5969 4.36087 20.3043 4.48203 19.9994 4.48203C16.8821 4.48203 13.9781 5.40344 11.5452 6.9885L11.4705 7.03721L11.5104 7.11702L13.6879 11.4708M2.18483 19.7194L13.6879 11.4708M13.6879 11.4708C13.688 11.4709 13.688 11.4709 13.688 11.471L13.6879 11.4708ZM35.5156 19.8062L35.516 19.9339L35.516 19.9987L35.5156 19.8062ZM35.5156 19.8062L35.3917 19.8372M35.5156 19.8062L35.3917 19.8372M35.3917 19.8372L31.7649 20.7442C31.4594 20.8205 31.174 20.9619 30.9283 21.1587C30.6826 21.3556 30.4824 21.6033 30.3414 21.8848L30.3413 21.8849M35.3917 19.8372L30.3413 21.8849M30.3413 21.8849L29.383 23.8032L29.383 23.8033M30.3413 21.8849L29.383 23.8033M29.383 23.8033C29.0994 24.3726 28.6978 24.8749 28.205 25.2768C27.7121 25.6788 27.1392 25.971 26.5246 26.1342C25.9099 26.2974 25.2675 26.3278 24.6402 26.2233C24.0128 26.1188 23.415 25.8818 22.8864 25.5281L22.8862 25.528M29.383 23.8033L22.8862 25.528M22.8862 25.528L22.1096 25.0114C21.1742 24.3875 20.5074 23.435 20.2413 22.3426L20.2413 22.3426M22.8862 25.528L20.2413 22.3426M20.2413 22.3426L18.9863 17.1977C18.7977 16.4203 18.1985 15.8089 17.4247 15.6046L14.4947 14.8296L14.4947 14.8296M20.2413 22.3426L14.4947 14.8296M14.4947 14.8296C13.8791 14.6671 13.3052 14.3752 12.8113 13.9735C12.3174 13.5718 11.9148 13.0694 11.6303 12.4999L11.6302 12.4999M14.4947 14.8296L11.6302 12.4999M11.6302 12.4999L9.67535 8.59008L9.61605 8.47148M11.6302 12.4999L9.61605 8.47148M9.61605 8.47148L9.51832 8.56109M9.61605 8.47148L9.51832 8.56109M9.51832 8.56109C6.58168 11.2539 4.68336 15.0619 4.49767 19.3112L4.49513 19.3695M9.51832 8.56109L4.49513 19.3695M4.49513 19.3695L4.54459 19.4004M4.49513 19.3695L4.54459 19.4004M4.54459 19.4004L9.39308 22.4301C10.0057 22.8135 10.7124 23.0154 11.4328 23.0154H12.6995H12.6995M4.54459 19.4004L12.6995 23.0154M12.6995 23.0154C13.5867 23.0151 14.4635 23.207 15.2694 23.5778C16.0754 23.9487 16.7915 24.4897 17.3685 25.1637L17.3685 25.1638M12.6995 23.0154L17.3685 25.1638M17.3685 25.1638L19.1219 27.2088L19.1219 27.2088M17.3685 25.1638L19.1219 27.2088M19.1219 27.2088C19.7838 27.9804 20.244 28.9042 20.4612 29.8974C20.6784 30.8905 20.646 31.922 20.3666 32.8996L19.6561 35.3859L19.6202 35.5114M19.1219 27.2088L19.6202 35.5114M19.6202 35.5114L19.7506 35.5134M19.6202 35.5114L19.7506 35.5134M19.7506 35.5134C19.8334 35.5147 19.9163 35.5154 19.9994 35.5154M19.7506 35.5134L19.9994 35.5154M17.2947 35.2803L17.2055 35.264C10.7434 34.0869 5.67192 28.9016 4.66497 22.382L4.63163 22.1662L4.8168 22.282L8.17407 24.3805L17.2947 35.2803ZM17.2947 35.2803L17.3196 35.1931M17.2947 35.2803L17.3196 35.1931M17.3196 35.1931L18.1556 32.2678L18.1556 32.2678M17.3196 35.1931L18.1556 32.2678M15.6237 26.6603L15.6237 26.6603L17.3754 28.7053L15.6237 26.6603ZM15.6237 26.6603C14.8914 25.8065 13.8237 25.3154 12.6995 25.3154H11.4328C10.2816 25.3154 9.15162 24.9907 8.17413 24.3806L15.6237 26.6603ZM18.1556 32.2678C18.3302 31.6557 18.3502 31.01 18.2141 30.3883C18.0779 29.7666 17.7898 29.1884 17.3754 28.7053L18.1556 32.2678ZM19.9994 35.5154C28.5629 35.5154 35.5159 28.5623 35.516 19.9988L19.9994 35.5154ZM23.824 11.1397L23.8239 11.1396C23.1343 9.96919 22.6961 8.78261 22.6961 7.81873C22.6966 6.32392 23.2906 4.89045 24.3476 3.83346C25.4045 2.77647 26.838 2.18247 28.3328 2.18203C31.4442 2.18203 33.9695 4.70726 33.9695 7.8187C33.9695 8.78261 33.5313 9.96919 32.8416 11.1396L32.8416 11.1397C32.1501 12.3164 31.2266 13.4842 30.4743 14.3591C30.0984 14.7963 29.7659 15.1596 29.5275 15.4136C29.4083 15.5405 29.3126 15.6401 29.2468 15.7079C29.2139 15.7418 29.1884 15.7678 29.1713 15.7852L29.1518 15.8049L29.1469 15.8098L29.1457 15.811L29.1454 15.8113L29.1454 15.8114L29.2161 15.882L29.1454 15.8114C29.0387 15.9182 28.912 16.0029 28.7726 16.0607C28.6332 16.1185 28.4837 16.1483 28.3328 16.1483C28.1818 16.1483 28.0324 16.1185 27.893 16.0607C27.7535 16.0029 27.6269 15.9182 27.5202 15.8114L27.4495 15.882L27.5202 15.8114L27.5201 15.8113L27.5198 15.811L27.5186 15.8098L27.5138 15.8049L27.4943 15.7852C27.4771 15.7678 27.4517 15.7418 27.4188 15.7079C27.353 15.6401 27.2573 15.5405 27.1381 15.4136C26.8997 15.1596 26.5672 14.7963 26.1913 14.3591C25.439 13.4842 24.5155 12.3164 23.824 11.1397ZM30.293 10.8578L30.2934 10.8571C30.6458 10.3461 30.9887 9.81596 31.2436 9.30143C31.4979 8.78827 31.6695 8.28143 31.6695 7.8187C31.6695 5.9768 30.1747 4.48203 28.3328 4.48203C26.4909 4.48203 24.9961 5.9768 24.9961 7.8187C24.9961 8.28143 25.1677 8.78827 25.4219 9.30143C25.6769 9.81596 26.0198 10.3461 26.3721 10.8571L26.3722 10.8572C27.0037 11.7718 27.7149 12.6218 28.258 13.2334L28.3325 13.3173L28.4073 13.2337C29.0822 12.4796 29.7119 11.6863 30.293 10.8578ZM22.5725 21.7746L22.4753 21.7983C22.605 22.3302 22.9298 22.794 23.3853 23.0978L23.3854 23.0978L24.1617 23.6143C24.1618 23.6143 24.1618 23.6143 24.1619 23.6144C24.4191 23.7871 24.7102 23.9029 25.0158 23.954C25.3214 24.0052 25.6345 23.9905 25.9339 23.911C26.2334 23.8314 26.5125 23.6888 26.7525 23.4928C26.9924 23.2967 27.1876 23.0518 27.3253 22.7742L27.3252 22.7743L27.2358 22.7296L27.3254 22.774L22.5725 21.7746ZM31.1825 18.4146L31.2067 18.5116L31.1825 18.4146Z" fill="black" stroke="#F8F9F9" stroke-width="0.2"/>
</svg>
