<svg width="24" height="24" viewBox="0 0 24 24" fill="none" xmlns="http://www.w3.org/2000/svg">
<path d="M12.0003 0.480469C7.75719 0.480469 4.32031 3.91734 4.32031 8.16047C4.32031 11.6686 6.17281 15.4392 7.99531 18.3605C9.81781 21.2817 11.6403 23.3555 11.6403 23.3555C11.7322 23.4586 11.8634 23.5186 12.0003 23.5186C12.1372 23.5186 12.2684 23.4586 12.3603 23.3555C12.3603 23.3555 14.1847 21.2386 16.0053 18.3005C17.8259 15.3623 19.6803 11.6011 19.6803 8.16047C19.6803 3.91734 16.2434 0.480469 12.0003 0.480469ZM12.0003 1.44047C15.7259 1.44047 18.7203 4.43484 18.7203 8.16047C18.7203 11.2486 16.9747 14.9198 15.1953 17.7905C13.7047 20.1961 12.4428 21.7448 12.0003 22.2755C11.5541 21.7486 10.2922 20.2336 8.80531 17.8505C7.02781 15.0005 5.28031 11.3236 5.28031 8.16047C5.28031 4.43484 8.27469 1.44047 12.0003 1.44047ZM12.0003 5.28047C10.1497 5.28047 8.64031 6.78984 8.64031 8.64047C8.64031 10.4911 10.1497 12.0005 12.0003 12.0005C13.8509 12.0005 15.3603 10.4911 15.3603 8.64047C15.3603 6.78984 13.8509 5.28047 12.0003 5.28047ZM12.0003 6.24047C13.3316 6.24047 14.4003 7.30922 14.4003 8.64047C14.4003 9.97172 13.3316 11.0405 12.0003 11.0405C10.6691 11.0405 9.60031 9.97172 9.60031 8.64047C9.60031 7.30922 10.6691 6.24047 12.0003 6.24047Z" fill="#8D9CB0"/>
</svg>
