<svg width="40" height="40" viewBox="0 0 40 40" fill="none" xmlns="http://www.w3.org/2000/svg">
<path d="M2.69648 38.7997H37.3045C37.5167 38.7997 37.7201 38.7154 37.8702 38.5654C38.0202 38.4153 38.1045 38.2119 38.1045 37.9997V34.0517C38.1016 33.0385 37.8608 32.0401 37.4016 31.1369C36.9424 30.2337 36.2775 29.451 35.4605 28.8517C32.3245 26.5597 29.7525 25.2237 27.6365 24.7997C27.5886 24.6878 27.5145 24.589 27.4205 24.5117L25.5205 22.9517C25.3717 22.8294 25.1838 22.765 24.9913 22.7701C24.7987 22.7752 24.6145 22.8497 24.4725 22.9797L20.0005 27.0597L15.5285 22.9677C15.3864 22.8377 15.2022 22.7632 15.0097 22.7581C14.8172 22.753 14.6293 22.8174 14.4805 22.9397L12.5805 24.4997C12.4865 24.577 12.4124 24.6758 12.3645 24.7877C10.2485 25.2237 7.67648 26.5597 4.54448 28.8557C3.72629 29.4541 3.0603 30.2366 2.60031 31.1399C2.14032 32.0432 1.89922 33.042 1.89648 34.0557V37.9997C1.89648 38.2119 1.98077 38.4153 2.1308 38.5654C2.28083 38.7154 2.48431 38.7997 2.69648 38.7997ZM20.0005 29.1757L22.1645 30.9517L21.0085 32.3997H19.0085L17.8525 30.9437L20.0005 29.1757ZM19.1685 33.9997H20.8325L22.0005 37.1997H18.0005L19.1685 33.9997ZM36.5045 34.0437V37.1997H23.7045L22.3045 33.3517L23.4045 31.9637L23.8525 32.3317C23.9954 32.4501 24.1749 32.5151 24.3605 32.5157C24.4293 32.5142 24.4978 32.5048 24.5645 32.4877C24.6867 32.4548 24.7993 32.3935 24.8932 32.3087C24.9871 32.2238 25.0595 32.1179 25.1045 31.9997L27.2925 26.3477C29.1645 26.7477 31.5885 28.0037 34.4925 30.1437C35.1115 30.591 35.6164 31.178 35.966 31.857C36.3156 32.536 36.5001 33.288 36.5045 34.0517V34.0437ZM25.0405 24.6157L25.9605 25.3677L24.0005 30.3997L21.2005 28.1117L25.0405 24.6157ZM14.9605 24.6157L18.8005 28.1077L16.0005 30.3997L14.0405 25.3677L14.9605 24.6157ZM3.49648 34.0517C3.50015 33.2897 3.68311 32.5392 4.03055 31.861C4.378 31.1828 4.88018 30.5959 5.49648 30.1477C8.42048 28.0077 10.8445 26.7357 12.6965 26.3517L14.8965 31.9997C14.9424 32.1176 15.0157 32.223 15.1102 32.3072C15.2048 32.3913 15.318 32.4518 15.4405 32.4837C15.5072 32.5008 15.5756 32.5102 15.6445 32.5117C15.83 32.5111 16.0096 32.4461 16.1525 32.3277L16.6005 31.9597L17.7005 33.3477L16.3005 37.1997H3.50048L3.49648 34.0517Z" fill="black"/>
<path d="M11.725 10.5688C11.6572 12.0348 11.8942 13.499 12.421 14.8688C12.3436 16.2815 12.5532 17.6952 13.037 19.0248C13.933 21.4248 17.525 24.0728 19.549 24.3128H20.481C22.481 24.0728 26.081 21.4168 26.997 19.0248C27.4987 17.6457 27.7045 16.1766 27.601 14.7128V14.0248C28.081 12.9248 28.645 10.0248 28.277 8.35676C28.185 7.67676 27.253 2.09276 20.741 1.30076C15.737 0.692762 14.161 3.06076 13.141 4.62876C12.9046 5.02518 12.6197 5.39065 12.293 5.71676C10.773 6.99676 9.68103 8.08876 9.63703 8.11676C9.55822 8.19493 9.49654 8.28864 9.45591 8.39193C9.41528 8.49523 9.39659 8.60585 9.40103 8.71676C9.40596 8.82817 9.43412 8.93732 9.48372 9.03721C9.53332 9.13709 9.60325 9.2255 9.68903 9.29676C10.3162 9.79814 10.9994 10.225 11.725 10.5688ZM25.501 18.4608C24.837 20.2128 21.837 22.5048 20.333 22.7168H19.697C18.193 22.5048 15.201 20.2128 14.533 18.4608C14.1154 17.2994 13.9438 16.064 14.029 14.8328V14.8008C14.0313 14.7902 14.0313 14.7793 14.029 14.7688C14.029 14.7688 14.165 12.5208 15.529 11.6528C16.3265 11.7431 17.1316 11.7431 17.929 11.6528C21.041 11.2528 22.757 10.1888 23.505 9.58076C24.521 10.1728 25.305 11.5568 26.009 13.9568V14.7568C26.007 14.7901 26.007 14.8235 26.009 14.8568C26.0884 16.0802 25.9155 17.3069 25.501 18.4608ZM13.313 6.94076C13.759 6.52077 14.1452 6.04165 14.461 5.51676C15.429 4.05276 16.529 2.40076 20.557 2.88876C26.157 3.56876 26.677 8.36476 26.697 8.56876C26.6951 8.60474 26.6951 8.64079 26.697 8.67676C26.8227 9.48056 26.8146 10.2996 26.673 11.1008C26.009 9.63676 25.073 8.38876 23.613 7.86476C23.4604 7.81306 23.2959 7.8075 23.1401 7.84876C22.9843 7.89002 22.8441 7.97628 22.737 8.09676C22.737 8.09676 21.393 9.60076 17.733 10.0528C16.9814 10.1487 16.2206 10.1487 15.469 10.0528C15.3112 10.0331 15.151 10.0609 15.009 10.1328C14.3126 10.488 13.7335 11.0366 13.341 11.7128C13.3016 11.1908 13.3016 10.6667 13.341 10.1448C13.3541 9.97704 13.314 9.80945 13.2264 9.66583C13.1388 9.52221 13.0082 9.40986 12.853 9.34476C12.3638 9.13717 11.8905 8.89385 11.437 8.61676C11.905 8.17276 12.557 7.57676 13.313 6.94076Z" fill="black"/>
</svg>
