<svg width="24" height="24" viewBox="0 0 24 24" fill="none" xmlns="http://www.w3.org/2000/svg">
<path d="M10.0799 1.44141C5.57805 1.44141 1.91992 5.09953 1.91992 9.60141C1.91992 14.1033 5.57805 17.7614 10.0799 17.7614C11.8612 17.7614 13.5074 17.1877 14.8499 16.2164L20.4891 21.8422C20.8625 22.2147 21.467 22.2143 21.8399 21.8414C22.2128 21.4685 22.2132 20.864 21.8407 20.4906L16.2749 14.9114C17.5012 13.4827 18.2399 11.6283 18.2399 9.60141C18.2399 5.09953 14.5818 1.44141 10.0799 1.44141ZM10.0799 2.40141C14.0624 2.40141 17.2799 5.61891 17.2799 9.60141C17.2799 13.5839 14.0624 16.8014 10.0799 16.8014C6.09742 16.8014 2.87992 13.5839 2.87992 9.60141C2.87992 5.61891 6.09742 2.40141 10.0799 2.40141Z" fill="#8D9CB0"/>
</svg>
