<svg width="40" height="40" viewBox="0 0 40 40" fill="none" xmlns="http://www.w3.org/2000/svg">
<mask id="path-1-inside-1_252_507" fill="white">
<path d="M37.6 11.1986C37.4795 11.1057 37.3397 11.041 37.1909 11.0091C37.0421 10.9773 36.888 10.9792 36.74 11.0146L32.904 11.9986C31.488 11.9186 26.972 10.1826 24.4 9.07859L24.348 9.05859C20.932 7.83059 17.976 8.10659 15.504 9.85859C12.216 8.73459 8.00401 11.1066 6.70401 11.9186L3.24801 11.0306C3.10033 10.992 2.94576 10.9878 2.79622 11.0184C2.64668 11.049 2.50618 11.1136 2.38556 11.2072C2.26495 11.3007 2.16745 11.4207 2.1006 11.558C2.03375 11.6952 1.99933 11.8459 2.00001 11.9986V25.9986C2.00001 26.2638 2.10537 26.5182 2.2929 26.7057C2.48044 26.8932 2.73479 26.9986 3.00001 26.9986H5.12401L14.216 34.1666C14.565 34.5023 14.99 34.7485 15.4548 34.8843C15.9196 35.02 16.4104 35.0413 16.8851 34.9461C17.3599 34.851 17.8046 34.6424 18.1813 34.3381C18.5579 34.0338 18.8553 33.6428 19.048 33.1986C19.5012 33.4582 20.0138 33.596 20.536 33.5986C21.1222 33.5988 21.6956 33.4273 22.1854 33.1053C22.6752 32.7833 23.0599 32.3248 23.292 31.7866C23.7443 32.0482 24.2575 32.1862 24.78 32.1866C25.3655 32.1861 25.938 32.0142 26.427 31.6922C26.916 31.3702 27.3002 30.9122 27.532 30.3746C27.9938 30.6368 28.517 30.7714 29.048 30.7645C29.579 30.7577 30.0986 30.6096 30.5535 30.3355C31.0083 30.0615 31.382 29.6713 31.6362 29.2051C31.8905 28.7389 32.016 28.2134 32 27.6826L34.14 26.9986H37C37.2652 26.9986 37.5196 26.8932 37.7071 26.7057C37.8947 26.5182 38 26.2638 38 25.9986V11.9986C38.0006 11.8432 37.9648 11.6899 37.8953 11.5509C37.8258 11.412 37.7247 11.2913 37.6 11.1986ZM4.00001 13.2786L5.78801 13.7386L5.07201 20.3986L4.57601 24.9986H4.00001V13.2786ZM29.728 28.4626C29.5379 28.6459 29.2841 28.7483 29.02 28.7483C28.7559 28.7483 28.5021 28.6459 28.312 28.4626L26.9 27.0506L21.244 21.3906C21.054 21.2197 20.8058 21.1281 20.5503 21.1345C20.2948 21.1409 20.0515 21.2449 19.8703 21.4251C19.6891 21.6053 19.5837 21.848 19.5759 22.1034C19.568 22.3589 19.6582 22.6076 19.828 22.7986L25.488 28.4666C25.6699 28.6554 25.7704 28.9082 25.7677 29.1704C25.7651 29.4326 25.6596 29.6833 25.4739 29.8684C25.2882 30.0536 25.0372 30.1584 24.775 30.1603C24.5128 30.1622 24.2604 30.061 24.072 29.8786L22.656 28.4626L18.4 24.2186C18.307 24.1256 18.1967 24.0519 18.0752 24.0015C17.9537 23.9512 17.8235 23.9253 17.692 23.9253C17.5605 23.9253 17.4303 23.9512 17.3088 24.0015C17.1874 24.0519 17.077 24.1256 16.984 24.2186C16.891 24.3116 16.8173 24.4219 16.767 24.5434C16.7166 24.6649 16.6907 24.7951 16.6907 24.9266C16.6907 25.0581 16.7166 25.1883 16.767 25.3098C16.8173 25.4312 16.891 25.5416 16.984 25.6346L21.244 29.8786C21.3394 29.971 21.4154 30.0814 21.4676 30.2035C21.5199 30.3256 21.5473 30.4568 21.5482 30.5896C21.5492 30.7224 21.5237 30.854 21.4732 30.9768C21.4228 31.0997 21.3484 31.2112 21.2543 31.305C21.1603 31.3987 21.0486 31.4728 20.9256 31.5229C20.8026 31.573 20.6709 31.5981 20.5382 31.5968C20.4054 31.5955 20.2742 31.5677 20.1523 31.5151C20.0304 31.4625 19.9201 31.3862 19.828 31.2906L15.6 27.0506C15.5075 26.9576 15.3974 26.8838 15.2763 26.8334C15.1551 26.7831 15.0252 26.7571 14.894 26.7571C14.7628 26.7571 14.6329 26.7831 14.5117 26.8334C14.3906 26.8838 14.2806 26.9576 14.188 27.0506C14.0948 27.1425 14.0209 27.2521 13.9708 27.373C13.9206 27.494 13.8952 27.6237 13.896 27.7546C13.8956 27.886 13.9211 28.0163 13.9712 28.1378C14.0214 28.2593 14.095 28.3697 14.188 28.4626L17.016 31.2906C17.2031 31.4787 17.3081 31.7333 17.3081 31.9986C17.3081 32.2639 17.2031 32.5185 17.016 32.7066C16.825 32.8881 16.5715 32.9893 16.308 32.9893C16.0445 32.9893 15.7911 32.8881 15.6 32.7066C15.5726 32.6779 15.5432 32.6511 15.512 32.6266L6.52401 25.5546L7.52801 16.2786L7.82001 13.5746C9.09201 12.7746 11.576 11.5386 13.636 11.5746C13.0238 12.2815 12.4763 13.0418 12 13.8466C11.5588 14.5983 11.4184 15.4891 11.6068 16.3402C11.7953 17.1912 12.2987 17.9394 13.016 18.4346C14.432 19.4026 17.016 20.3026 20.216 17.5386L29.728 27.0466C29.9141 27.2352 30.0185 27.4896 30.0185 27.7546C30.0185 28.0196 29.9141 28.274 29.728 28.4626ZM31.3 25.8106C31.2513 25.7491 31.1992 25.6903 31.144 25.6346L21.624 16.1146C22.024 15.6586 22.424 15.1506 22.824 14.5746C22.9149 14.4691 22.9828 14.3458 23.0233 14.2125C23.0638 14.0793 23.076 13.939 23.0592 13.8008C23.0423 13.6625 22.9968 13.5293 22.9255 13.4097C22.8542 13.2901 22.7587 13.1867 22.6451 13.1061C22.5315 13.0255 22.4023 12.9696 22.2659 12.9418C22.1294 12.914 21.9886 12.9151 21.8526 12.9449C21.7165 12.9747 21.5882 13.0326 21.4759 13.1148C21.3635 13.1971 21.2695 13.3019 21.2 13.4226C19.424 15.9386 16.768 18.5626 14.16 16.7826C13.8639 16.5717 13.6582 16.2568 13.5841 15.9009C13.5099 15.545 13.5727 15.1742 13.76 14.8626C14.4083 13.7045 15.2559 12.6699 16.264 11.8066C16.2964 11.7835 16.3272 11.7581 16.356 11.7306C18.356 10.1306 20.756 9.88659 23.668 10.9306C24.424 11.2506 29.46 13.3826 32.1 13.8906L32.98 25.2866L31.3 25.8106ZM36 24.9986H34.928L34.06 13.7626L36 13.2786V24.9986Z"/>
</mask>
<path d="M37.6 11.1986C37.4795 11.1057 37.3397 11.041 37.1909 11.0091C37.0421 10.9773 36.888 10.9792 36.74 11.0146L32.904 11.9986C31.488 11.9186 26.972 10.1826 24.4 9.07859L24.348 9.05859C20.932 7.83059 17.976 8.10659 15.504 9.85859C12.216 8.73459 8.00401 11.1066 6.70401 11.9186L3.24801 11.0306C3.10033 10.992 2.94576 10.9878 2.79622 11.0184C2.64668 11.049 2.50618 11.1136 2.38556 11.2072C2.26495 11.3007 2.16745 11.4207 2.1006 11.558C2.03375 11.6952 1.99933 11.8459 2.00001 11.9986V25.9986C2.00001 26.2638 2.10537 26.5182 2.2929 26.7057C2.48044 26.8932 2.73479 26.9986 3.00001 26.9986H5.12401L14.216 34.1666C14.565 34.5023 14.99 34.7485 15.4548 34.8843C15.9196 35.02 16.4104 35.0413 16.8851 34.9461C17.3599 34.851 17.8046 34.6424 18.1813 34.3381C18.5579 34.0338 18.8553 33.6428 19.048 33.1986C19.5012 33.4582 20.0138 33.596 20.536 33.5986C21.1222 33.5988 21.6956 33.4273 22.1854 33.1053C22.6752 32.7833 23.0599 32.3248 23.292 31.7866C23.7443 32.0482 24.2575 32.1862 24.78 32.1866C25.3655 32.1861 25.938 32.0142 26.427 31.6922C26.916 31.3702 27.3002 30.9122 27.532 30.3746C27.9938 30.6368 28.517 30.7714 29.048 30.7645C29.579 30.7577 30.0986 30.6096 30.5535 30.3355C31.0083 30.0615 31.382 29.6713 31.6362 29.2051C31.8905 28.7389 32.016 28.2134 32 27.6826L34.14 26.9986H37C37.2652 26.9986 37.5196 26.8932 37.7071 26.7057C37.8947 26.5182 38 26.2638 38 25.9986V11.9986C38.0006 11.8432 37.9648 11.6899 37.8953 11.5509C37.8258 11.412 37.7247 11.2913 37.6 11.1986ZM4.00001 13.2786L5.78801 13.7386L5.07201 20.3986L4.57601 24.9986H4.00001V13.2786ZM29.728 28.4626C29.5379 28.6459 29.2841 28.7483 29.02 28.7483C28.7559 28.7483 28.5021 28.6459 28.312 28.4626L26.9 27.0506L21.244 21.3906C21.054 21.2197 20.8058 21.1281 20.5503 21.1345C20.2948 21.1409 20.0515 21.2449 19.8703 21.4251C19.6891 21.6053 19.5837 21.848 19.5759 22.1034C19.568 22.3589 19.6582 22.6076 19.828 22.7986L25.488 28.4666C25.6699 28.6554 25.7704 28.9082 25.7677 29.1704C25.7651 29.4326 25.6596 29.6833 25.4739 29.8684C25.2882 30.0536 25.0372 30.1584 24.775 30.1603C24.5128 30.1622 24.2604 30.061 24.072 29.8786L22.656 28.4626L18.4 24.2186C18.307 24.1256 18.1967 24.0519 18.0752 24.0015C17.9537 23.9512 17.8235 23.9253 17.692 23.9253C17.5605 23.9253 17.4303 23.9512 17.3088 24.0015C17.1874 24.0519 17.077 24.1256 16.984 24.2186C16.891 24.3116 16.8173 24.4219 16.767 24.5434C16.7166 24.6649 16.6907 24.7951 16.6907 24.9266C16.6907 25.0581 16.7166 25.1883 16.767 25.3098C16.8173 25.4312 16.891 25.5416 16.984 25.6346L21.244 29.8786C21.3394 29.971 21.4154 30.0814 21.4676 30.2035C21.5199 30.3256 21.5473 30.4568 21.5482 30.5896C21.5492 30.7224 21.5237 30.854 21.4732 30.9768C21.4228 31.0997 21.3484 31.2112 21.2543 31.305C21.1603 31.3987 21.0486 31.4728 20.9256 31.5229C20.8026 31.573 20.6709 31.5981 20.5382 31.5968C20.4054 31.5955 20.2742 31.5677 20.1523 31.5151C20.0304 31.4625 19.9201 31.3862 19.828 31.2906L15.6 27.0506C15.5075 26.9576 15.3974 26.8838 15.2763 26.8334C15.1551 26.7831 15.0252 26.7571 14.894 26.7571C14.7628 26.7571 14.6329 26.7831 14.5117 26.8334C14.3906 26.8838 14.2806 26.9576 14.188 27.0506C14.0948 27.1425 14.0209 27.2521 13.9708 27.373C13.9206 27.494 13.8952 27.6237 13.896 27.7546C13.8956 27.886 13.9211 28.0163 13.9712 28.1378C14.0214 28.2593 14.095 28.3697 14.188 28.4626L17.016 31.2906C17.2031 31.4787 17.3081 31.7333 17.3081 31.9986C17.3081 32.2639 17.2031 32.5185 17.016 32.7066C16.825 32.8881 16.5715 32.9893 16.308 32.9893C16.0445 32.9893 15.7911 32.8881 15.6 32.7066C15.5726 32.6779 15.5432 32.6511 15.512 32.6266L6.52401 25.5546L7.52801 16.2786L7.82001 13.5746C9.09201 12.7746 11.576 11.5386 13.636 11.5746C13.0238 12.2815 12.4763 13.0418 12 13.8466C11.5588 14.5983 11.4184 15.4891 11.6068 16.3402C11.7953 17.1912 12.2987 17.9394 13.016 18.4346C14.432 19.4026 17.016 20.3026 20.216 17.5386L29.728 27.0466C29.9141 27.2352 30.0185 27.4896 30.0185 27.7546C30.0185 28.0196 29.9141 28.274 29.728 28.4626ZM31.3 25.8106C31.2513 25.7491 31.1992 25.6903 31.144 25.6346L21.624 16.1146C22.024 15.6586 22.424 15.1506 22.824 14.5746C22.9149 14.4691 22.9828 14.3458 23.0233 14.2125C23.0638 14.0793 23.076 13.939 23.0592 13.8008C23.0423 13.6625 22.9968 13.5293 22.9255 13.4097C22.8542 13.2901 22.7587 13.1867 22.6451 13.1061C22.5315 13.0255 22.4023 12.9696 22.2659 12.9418C22.1294 12.914 21.9886 12.9151 21.8526 12.9449C21.7165 12.9747 21.5882 13.0326 21.4759 13.1148C21.3635 13.1971 21.2695 13.3019 21.2 13.4226C19.424 15.9386 16.768 18.5626 14.16 16.7826C13.8639 16.5717 13.6582 16.2568 13.5841 15.9009C13.5099 15.545 13.5727 15.1742 13.76 14.8626C14.4083 13.7045 15.2559 12.6699 16.264 11.8066C16.2964 11.7835 16.3272 11.7581 16.356 11.7306C18.356 10.1306 20.756 9.88659 23.668 10.9306C24.424 11.2506 29.46 13.3826 32.1 13.8906L32.98 25.2866L31.3 25.8106ZM36 24.9986H34.928L34.06 13.7626L36 13.2786V24.9986Z" fill="black" stroke="#F8F9F9" stroke-width="0.4" mask="url(#path-1-inside-1_252_507)"/>
</svg>
