<svg width="108" height="108" viewBox="0 0 108 108" fill="none" xmlns="http://www.w3.org/2000/svg">
<mask id="path-1-inside-1_252_539" fill="white">
<path d="M101.52 30.2393C101.195 29.9885 100.817 29.8138 100.416 29.7278C100.014 29.6418 99.598 29.6469 99.1984 29.7425L88.8412 32.3993C85.018 32.1833 72.8248 27.4961 65.8804 24.5153L65.74 24.4613C56.5168 21.1457 48.5356 21.8909 41.8612 26.6213C32.9836 23.5865 21.6112 29.9909 18.1012 32.1833L8.77002 29.7857C8.37129 29.6814 7.95394 29.6702 7.55018 29.7529C7.14642 29.8355 6.76707 30.0099 6.44141 30.2625C6.11576 30.5151 5.85251 30.8391 5.67202 31.2096C5.49152 31.5802 5.39859 31.9872 5.40042 32.3993V70.1993C5.40042 70.9154 5.68488 71.6022 6.19123 72.1085C6.69758 72.6149 7.38433 72.8993 8.10042 72.8993H13.8352L38.3836 92.2529C39.3258 93.1593 40.4734 93.8242 41.7284 94.1907C42.9833 94.5572 44.3083 94.6145 45.5903 94.3577C46.8722 94.1009 48.0729 93.5376 49.0898 92.716C50.1067 91.8943 50.9097 90.8387 51.43 89.6393C52.6535 90.3402 54.0376 90.7123 55.4476 90.7193C57.0303 90.72 58.5785 90.257 59.9009 89.3875C61.2233 88.518 62.2621 87.2802 62.8888 85.8269C64.11 86.5334 65.4956 86.9059 66.9064 86.9069C68.4872 86.9055 70.0331 86.4415 71.3534 85.5721C72.6737 84.7028 73.7108 83.4661 74.3368 82.0145C75.5836 82.7225 76.9964 83.0859 78.4301 83.0673C79.8637 83.0488 81.2666 82.6491 82.4947 81.9091C83.7228 81.1692 84.7319 80.1157 85.4183 78.8569C86.1046 77.5981 86.4436 76.1793 86.4004 74.7461L92.1784 72.8993H99.9004C100.617 72.8993 101.303 72.6149 101.81 72.1085C102.316 71.6022 102.6 70.9154 102.6 70.1993V32.3993C102.602 31.9799 102.505 31.5659 102.318 31.1907C102.13 30.8155 101.857 30.4896 101.52 30.2393ZM10.8004 35.8553L15.628 37.0973L13.6948 55.0793L12.3556 67.4993H10.8004V35.8553ZM80.266 76.8521C79.7527 77.3471 79.0675 77.6236 78.3544 77.6236C77.6414 77.6236 76.9561 77.3471 76.4428 76.8521L72.6304 73.0397L57.3592 57.7577C56.8461 57.2964 56.1759 57.049 55.4862 57.0663C54.7964 57.0836 54.1395 57.3644 53.6502 57.8509C53.1609 58.3374 52.8765 58.9927 52.8552 59.6824C52.834 60.372 53.0776 61.0436 53.536 61.5593L68.818 76.8629C69.3092 77.3728 69.5804 78.0553 69.5733 78.7632C69.5661 79.4712 69.2812 80.148 68.7799 80.6479C68.2786 81.1478 67.6009 81.4308 66.893 81.4359C66.185 81.4411 65.5033 81.1679 64.9948 80.6753L61.1716 76.8521L49.6804 65.3933C49.4294 65.1423 49.1314 64.9432 48.8034 64.8073C48.4754 64.6714 48.1238 64.6015 47.7688 64.6015C47.4138 64.6015 47.0623 64.6714 46.7343 64.8073C46.4063 64.9432 46.1082 65.1423 45.8572 65.3933C45.6062 65.6444 45.4071 65.9424 45.2712 66.2704C45.1353 66.5984 45.0654 66.9499 45.0654 67.3049C45.0654 67.6599 45.1353 68.0115 45.2712 68.3395C45.4071 68.6675 45.6062 68.9655 45.8572 69.2165L57.3592 80.6753C57.6167 80.9248 57.822 81.223 57.963 81.5526C58.104 81.8822 58.178 82.2366 58.1806 82.5951C58.1832 82.9536 58.1143 83.309 57.9781 83.6406C57.8419 83.9722 57.641 84.2734 57.3871 84.5265C57.1333 84.7797 56.8315 84.9797 56.4995 85.115C56.1675 85.2503 55.8119 85.3181 55.4534 85.3145C55.0949 85.3109 54.7408 85.2359 54.4116 85.094C54.0824 84.952 53.7847 84.7459 53.536 84.4877L42.1204 73.0397C41.8705 72.7886 41.5735 72.5893 41.2464 72.4534C40.9192 72.3174 40.5685 72.2474 40.2142 72.2474C39.86 72.2474 39.5092 72.3174 39.1821 72.4534C38.8549 72.5893 38.5579 72.7886 38.308 73.0397C38.0563 73.2878 37.8569 73.5839 37.7215 73.9103C37.5861 74.2368 37.5174 74.5871 37.5196 74.9405C37.5184 75.2954 37.5874 75.647 37.7227 75.9751C37.8581 76.3032 38.057 76.6013 38.308 76.8521L45.9436 84.4877C46.4488 84.9957 46.7324 85.6829 46.7324 86.3993C46.7324 87.1157 46.4488 87.803 45.9436 88.3109C45.4278 88.8009 44.7435 89.0741 44.032 89.0741C43.3206 89.0741 42.6362 88.8009 42.1204 88.3109C42.0464 88.2334 41.967 88.1612 41.8828 88.0949L17.6152 69.0005L20.326 43.9553L21.1144 36.6545C24.5488 34.4945 31.2556 31.1573 36.8176 31.2545C35.1647 33.163 33.6863 35.2161 32.4004 37.3889C31.2093 39.4186 30.83 41.8238 31.3388 44.1215C31.8477 46.4193 33.2069 48.4395 35.1436 49.7765C38.9668 52.3901 45.9436 54.8201 54.5836 47.3573L80.266 73.0289C80.7686 73.5382 81.0504 74.225 81.0504 74.9405C81.0504 75.6561 80.7686 76.3428 80.266 76.8521ZM84.5104 69.6917C84.3789 69.5257 84.2382 69.3671 84.0892 69.2165L58.3852 43.5125C59.4652 42.2813 60.5452 40.9097 61.6252 39.3545C61.8707 39.0697 62.054 38.7367 62.1633 38.377C62.2727 38.0172 62.3057 37.6385 62.2602 37.2653C62.2147 36.892 62.0918 36.5324 61.8993 36.2094C61.7067 35.8864 61.4489 35.6072 61.1422 35.3896C60.8355 35.172 60.4867 35.0209 60.1183 34.946C59.7498 34.871 59.3697 34.8739 59.0024 34.9543C58.6351 35.0348 58.2886 35.191 57.9852 35.4131C57.6818 35.6353 57.4281 35.9183 57.2404 36.2441C52.4452 43.0373 45.274 50.1221 38.2324 45.3161C37.4329 44.7467 36.8775 43.8966 36.6773 42.9356C36.4771 41.9746 36.6468 40.9735 37.1524 40.1321C38.9027 37.0051 41.1914 34.2118 43.9132 31.8809C44.0008 31.8185 44.0838 31.7499 44.1616 31.6757C49.5616 27.3557 56.0416 26.6969 63.904 29.5157C65.9452 30.3797 79.5424 36.1361 86.6704 37.5077L89.0464 68.2769L84.5104 69.6917ZM97.2004 67.4993H94.306L91.9624 37.1621L97.2004 35.8553V67.4993Z"/>
</mask>
<path d="M101.52 30.2393C101.195 29.9885 100.817 29.8138 100.416 29.7278C100.014 29.6418 99.598 29.6469 99.1984 29.7425L88.8412 32.3993C85.018 32.1833 72.8248 27.4961 65.8804 24.5153L65.74 24.4613C56.5168 21.1457 48.5356 21.8909 41.8612 26.6213C32.9836 23.5865 21.6112 29.9909 18.1012 32.1833L8.77002 29.7857C8.37129 29.6814 7.95394 29.6702 7.55018 29.7529C7.14642 29.8355 6.76707 30.0099 6.44141 30.2625C6.11576 30.5151 5.85251 30.8391 5.67202 31.2096C5.49152 31.5802 5.39859 31.9872 5.40042 32.3993V70.1993C5.40042 70.9154 5.68488 71.6022 6.19123 72.1085C6.69758 72.6149 7.38433 72.8993 8.10042 72.8993H13.8352L38.3836 92.2529C39.3258 93.1593 40.4734 93.8242 41.7284 94.1907C42.9833 94.5572 44.3083 94.6145 45.5903 94.3577C46.8722 94.1009 48.0729 93.5376 49.0898 92.716C50.1067 91.8943 50.9097 90.8387 51.43 89.6393C52.6535 90.3402 54.0376 90.7123 55.4476 90.7193C57.0303 90.72 58.5785 90.257 59.9009 89.3875C61.2233 88.518 62.2621 87.2802 62.8888 85.8269C64.11 86.5334 65.4956 86.9059 66.9064 86.9069C68.4872 86.9055 70.0331 86.4415 71.3534 85.5721C72.6737 84.7028 73.7108 83.4661 74.3368 82.0145C75.5836 82.7225 76.9964 83.0859 78.4301 83.0673C79.8637 83.0488 81.2666 82.6491 82.4947 81.9091C83.7228 81.1692 84.7319 80.1157 85.4183 78.8569C86.1046 77.5981 86.4436 76.1793 86.4004 74.7461L92.1784 72.8993H99.9004C100.617 72.8993 101.303 72.6149 101.81 72.1085C102.316 71.6022 102.6 70.9154 102.6 70.1993V32.3993C102.602 31.9799 102.505 31.5659 102.318 31.1907C102.13 30.8155 101.857 30.4896 101.52 30.2393ZM10.8004 35.8553L15.628 37.0973L13.6948 55.0793L12.3556 67.4993H10.8004V35.8553ZM80.266 76.8521C79.7527 77.3471 79.0675 77.6236 78.3544 77.6236C77.6414 77.6236 76.9561 77.3471 76.4428 76.8521L72.6304 73.0397L57.3592 57.7577C56.8461 57.2964 56.1759 57.049 55.4862 57.0663C54.7964 57.0836 54.1395 57.3644 53.6502 57.8509C53.1609 58.3374 52.8765 58.9927 52.8552 59.6824C52.834 60.372 53.0776 61.0436 53.536 61.5593L68.818 76.8629C69.3092 77.3728 69.5804 78.0553 69.5733 78.7632C69.5661 79.4712 69.2812 80.148 68.7799 80.6479C68.2786 81.1478 67.6009 81.4308 66.893 81.4359C66.185 81.4411 65.5033 81.1679 64.9948 80.6753L61.1716 76.8521L49.6804 65.3933C49.4294 65.1423 49.1314 64.9432 48.8034 64.8073C48.4754 64.6714 48.1238 64.6015 47.7688 64.6015C47.4138 64.6015 47.0623 64.6714 46.7343 64.8073C46.4063 64.9432 46.1082 65.1423 45.8572 65.3933C45.6062 65.6444 45.4071 65.9424 45.2712 66.2704C45.1353 66.5984 45.0654 66.9499 45.0654 67.3049C45.0654 67.6599 45.1353 68.0115 45.2712 68.3395C45.4071 68.6675 45.6062 68.9655 45.8572 69.2165L57.3592 80.6753C57.6167 80.9248 57.822 81.223 57.963 81.5526C58.104 81.8822 58.178 82.2366 58.1806 82.5951C58.1832 82.9536 58.1143 83.309 57.9781 83.6406C57.8419 83.9722 57.641 84.2734 57.3871 84.5265C57.1333 84.7797 56.8315 84.9797 56.4995 85.115C56.1675 85.2503 55.8119 85.3181 55.4534 85.3145C55.0949 85.3109 54.7408 85.2359 54.4116 85.094C54.0824 84.952 53.7847 84.7459 53.536 84.4877L42.1204 73.0397C41.8705 72.7886 41.5735 72.5893 41.2464 72.4534C40.9192 72.3174 40.5685 72.2474 40.2142 72.2474C39.86 72.2474 39.5092 72.3174 39.1821 72.4534C38.8549 72.5893 38.5579 72.7886 38.308 73.0397C38.0563 73.2878 37.8569 73.5839 37.7215 73.9103C37.5861 74.2368 37.5174 74.5871 37.5196 74.9405C37.5184 75.2954 37.5874 75.647 37.7227 75.9751C37.8581 76.3032 38.057 76.6013 38.308 76.8521L45.9436 84.4877C46.4488 84.9957 46.7324 85.6829 46.7324 86.3993C46.7324 87.1157 46.4488 87.803 45.9436 88.3109C45.4278 88.8009 44.7435 89.0741 44.032 89.0741C43.3206 89.0741 42.6362 88.8009 42.1204 88.3109C42.0464 88.2334 41.967 88.1612 41.8828 88.0949L17.6152 69.0005L20.326 43.9553L21.1144 36.6545C24.5488 34.4945 31.2556 31.1573 36.8176 31.2545C35.1647 33.163 33.6863 35.2161 32.4004 37.3889C31.2093 39.4186 30.83 41.8238 31.3388 44.1215C31.8477 46.4193 33.2069 48.4395 35.1436 49.7765C38.9668 52.3901 45.9436 54.8201 54.5836 47.3573L80.266 73.0289C80.7686 73.5382 81.0504 74.225 81.0504 74.9405C81.0504 75.6561 80.7686 76.3428 80.266 76.8521ZM84.5104 69.6917C84.3789 69.5257 84.2382 69.3671 84.0892 69.2165L58.3852 43.5125C59.4652 42.2813 60.5452 40.9097 61.6252 39.3545C61.8707 39.0697 62.054 38.7367 62.1633 38.377C62.2727 38.0172 62.3057 37.6385 62.2602 37.2653C62.2147 36.892 62.0918 36.5324 61.8993 36.2094C61.7067 35.8864 61.4489 35.6072 61.1422 35.3896C60.8355 35.172 60.4867 35.0209 60.1183 34.946C59.7498 34.871 59.3697 34.8739 59.0024 34.9543C58.6351 35.0348 58.2886 35.191 57.9852 35.4131C57.6818 35.6353 57.4281 35.9183 57.2404 36.2441C52.4452 43.0373 45.274 50.1221 38.2324 45.3161C37.4329 44.7467 36.8775 43.8966 36.6773 42.9356C36.4771 41.9746 36.6468 40.9735 37.1524 40.1321C38.9027 37.0051 41.1914 34.2118 43.9132 31.8809C44.0008 31.8185 44.0838 31.7499 44.1616 31.6757C49.5616 27.3557 56.0416 26.6969 63.904 29.5157C65.9452 30.3797 79.5424 36.1361 86.6704 37.5077L89.0464 68.2769L84.5104 69.6917ZM97.2004 67.4993H94.306L91.9624 37.1621L97.2004 35.8553V67.4993Z" fill="black" fill-opacity="0.03" stroke="#F8F9F9" mask="url(#path-1-inside-1_252_539)"/>
</svg>
