<svg width="24" height="24" viewBox="0 0 24 24" fill="none" xmlns="http://www.w3.org/2000/svg">
<g clip-path="url(#clip0_252_689)">
<path d="M5.76094 0C5.23594 0 4.80094 0.435 4.80094 0.96V1.92H1.92094C1.66969 1.92 1.41469 2.01187 1.23469 2.19375C1.05281 2.37375 0.960938 2.62875 0.960938 2.88V22.08C0.960938 22.3313 1.05281 22.5863 1.23469 22.7681C1.41469 22.9481 1.66969 23.04 1.92094 23.04H22.0809C22.3322 23.04 22.5872 22.9481 22.7691 22.7681C22.9491 22.5863 23.0409 22.3313 23.0409 22.08V2.88C23.0409 2.62875 22.9491 2.37375 22.7691 2.19375C22.5872 2.01187 22.3322 1.92 22.0809 1.92H19.2009V0.96C19.2009 0.435 18.7659 0 18.2409 0H17.2809C16.7559 0 16.3209 0.435 16.3209 0.96V1.92H7.68094V0.96C7.68094 0.435 7.24594 0 6.72094 0H5.76094ZM5.76094 0.96H6.72094V3.84H5.76094V0.96ZM17.2809 0.96H18.2409V3.84H17.2809V0.96ZM1.92094 2.88H4.80094V3.84C4.80094 4.365 5.23594 4.8 5.76094 4.8H6.72094C7.24594 4.8 7.68094 4.365 7.68094 3.84V2.88H16.3209V3.84C16.3209 4.365 16.7559 4.8 17.2809 4.8H18.2409C18.7659 4.8 19.2009 4.365 19.2009 3.84V2.88H22.0809V6.24H1.92094V2.88ZM1.92094 7.2H22.0809V22.08H1.92094V7.2ZM4.80094 9.12V20.16H19.2009V9.12H4.80094ZM5.76094 10.08H8.16094V12.48H5.76094V10.08ZM9.12094 10.08H11.5209V12.48H9.12094V10.08ZM12.4809 10.08H14.8809V12.48H12.4809V10.08ZM15.8409 10.08H18.2409V12.48H15.8409V10.08ZM5.76094 13.44H8.16094V15.84H5.76094V13.44ZM9.12094 13.44H11.5209V15.84H9.12094V13.44ZM15.8409 13.44H18.2409V15.84H15.8409V13.44ZM5.76094 16.8H8.16094V19.2H5.76094V16.8ZM9.12094 16.8H11.5209V19.2H9.12094V16.8ZM12.4809 16.8H14.8809V19.2H12.4809V16.8ZM15.8409 16.8H18.2409V19.2H15.8409V16.8Z" fill="#8D9CB0"/>
</g>
<defs>
<clipPath id="clip0_252_689">
<rect width="24" height="24" fill="white"/>
</clipPath>
</defs>
</svg>
